<svg xmlns="http://www.w3.org/2000/svg" viewBox="0 0 667.23 856.85"><defs><style>.cls-1{fill:#fff;}</style></defs><title>Kratinjay</title><g id="Layer_2" data-name="Layer 2"><g id="Kratinjay"><path class="cls-1" d="M618.69,506.18c-1-20.78-5.32-41.38-6.54-62.16-1.37-23.17-1.15-46.45-1.14-69.68,0-6.8.94-13.21-1.5-20.14-3-8.47-4.37-17.71-5.14-26.74-1.83-21-4.27-42-3.82-63,.42-20-10.06-33.93-20.84-48.47.49,1.95,1,3.89,1.66,6.73-2.25-.42-3.83-.58-5.35-1a93.28,93.28,0,0,1-40.19-23.95c-6.7-6.66-14.44-11.84-24-12.09-19.45-.49-38.92-.14-58.47-.14-7.59,44.22-54.22,69.29-96.54,69.11a16.07,16.07,0,0,1,5.29-2.41c9.64-2.2,18.86-5.4,26.41-12,3.79-3.33,7.64-7,6.51-13.21-51.69,27.8-105.34,49-163.93,55-.19-.5-.39-1-.58-1.51l33.33-13.26-.61-2c-4.34-.86-8.63-2-13-2.52a19.94,19.94,0,0,0-21.15,14,79.13,79.13,0,0,0-2.91,13.7c-2.42,19-12.56,32.13-29.83,40-2.82,1.28-5.69,2.45-8.54,3.67,10.22-8.27,19.63-16.41,22-30.65-1.44.37-2.16.36-2.61.71C194,314.57,184.45,327.91,176,342.46c-6.58,11.3-13.82,22.69-23,31.86-6.71,6.73-8.54,12.81-6.82,21.21,1.93,9.35,4.54,18.65,5.49,28.11,1.77,17.65-2.52,34.75-6.6,51.76-7,29.37-6.66,58.33,4,86.79,3.53,9.41,7.68,18.59,11.58,28l-6.53-3.92L178,630.76l-1.2.92-4.37-3.14c5.13,18.95,10.35,38.21,15.24,56.28.33-.58,1.48-2.51,3-5,3.63,15.58,0,31.25,7.72,44.8.92.14,1.84.3,2.75.46,3.24-8.88,6.47-17.77,10-27.33,7.52,10.32,8.18,21.67,7.25,33.44l1.93.37,10.06-18.88,1.66.29c-.84,8.29-1.69,16.56-2.65,26.15,14.88-15.59,15.33-34.73,18.43-53.07,7.12,18.2,10.46,36.25,1,54.6,13.75-11.89,16.28-29.34,22.12-45.29,3,16.67,6.89,33.14-3.92,48.69,9.73,0,15.43-5.88,20.07-13.52l1.53,1c.3,3.41.62,6.82,1,11.2,12.8-10,16.35-24.34,20.49-40.19,14.87,17,11.14,39.61,23.41,55.42l8.4-16.58,2,.59v22.8l7.87-10.19,1.86.13V781l1.48-.07q3.39-10,6.82-20l2.18.22q1.25,10.61,2.49,21.24l1,.07,7.82-25,1.86.5c2,11.79,3.92,23.59,6,36.12,2.91-10.42,5.63-20.22,8.36-30l2.26.43q1.28,11.58,2.56,23.17l.82-.16,4.32-17,2.26.12c1.93,7.52,3.86,15,5.88,22.94,5.79-5,6.46-13.47,14.41-16.37v14.7l8.54-13.13c2.42,5.62,4.16,9.68,6.33,14.68l4.83-15.63c6.54.13,2.78,6.37,5.63,9.63,1.79-6.08,3.37-11.53,5-17l1.67-.23c1.79,3.08,3.57,6.15,5.61,9.64-.23-3.37-.42-6.21-.61-9l1.89-.58c2.68,4.28,5.36,8.54,8.31,13.24,1-5.76,1.77-10.65,2.65-16l6.93,2.42c-1.24-7.12-2.31-13.23-3.37-19.34l1.86-.66,19.16,20.39c-.32-4.34-.48-6.7-.65-9.06l5.76,1.87c-1.07-2.58-2.12-5.19-3.18-7.78l1.33-1.66c4.44,2.26,8.89,4.51,14,7.1-1.79-4.55-3.39-8.23-4.65-12-.48-1.4-.2-3.05-.26-4.6a17.91,17.91,0,0,1,4.27,1.31c2.48,1.5,4.78,3.31,7.54,5.27-.73-9-1.43-17.33-2.1-25.71l2.41-.33c1.61,5.59,3.24,11.17,5.19,17.82,3.11-12.58,5.92-24,8.76-35.46l4.24,3.59,9.61,20.6,12.61-43.9,2,.09,8.95,16q4.69-13.36,9.35-26.6l1.56.06c1.87,4.68,3.75,9.37,5.89,14.77a161.75,161.75,0,0,0,19.22-55.81c2.18-13.82,1.9-28.05,4.47-41.77C620.28,564.94,620.08,535.53,618.69,506.18ZM467.6,488c3.14,4.81,6.1,9.77,9.47,14.44,7.33,10.16,15,20.12,22.29,30.27,6.05,8.36,11.25,17.28,10.26,28.08-1.25,13.47-11.3,24.93-26.11,24.28a22.59,22.59,0,0,1-4.14-1c0-.48,0-1,0-1.41a23.11,23.11,0,0,1,3.43-1.1c15.06-2.42,23.7-15.36,17.77-29.35-4.34-10.22-11.86-19-17.41-28.79-6-10.5-11.31-21.37-16.84-32.13C465.91,490.62,466.32,489.49,467.6,488ZM477,560.82c-3.78,9.74-17.49,11.43-25,3.05C458,557.12,470.11,555.63,477,560.82ZM411.78,537c1.48,6.8,3,13.62,4.61,21.14C410.54,551.6,410.09,544.44,411.78,537Zm-6.63,20.73c5.2,3.52,5.19,7.54,0,10.92-5.92,3.83-10.12,3.13-15.36-1.1-2.33-1.87-6-2.31-9.11-3-1.63-.36-3.43.14-5.86.29C382,554.64,396.22,551.67,405.15,557.72Zm-28.07,24.63c4.21,2.35,8.39,4.71,13,7.28-10.92,3-27.35-6.61-33.75-18.13-7.49-13.49,1.43-38.79,14-48.54-2.72,7.69-5,13.76-7,19.91C357.9,559.22,361.74,573.8,377.08,582.35ZM209.89,401.44c11.07-9.87,22.41-20.58,34.48-30.37,3-2.46,8.37-2.28,12.71-2.91,6.63-1,13.3-1.54,20-2.29,0-.75-.07-1.5-.12-2.25H266.32c12.58-4.78,25.17-8.47,38.66-4.37,7.32,2.23,14.84,3.79,22.23,5.82,9.28,2.55,18,1.17,26.4-3.24,6.9-3.62,21,1.28,24.75,9.32,2.9,6.21,4.25,13.13,6.58,20.71-4.24,0-6.89-.13-9.52,0-4.45.26-9.11,0-13.29,1.22a14.26,14.26,0,0,1-14.24-2.82c-4.12-3.34-8.72-4.65-14.83-3.07l5.63,6.3c-8.75,0-16.43.4-24-.1-7.78-.52-15.49-1.9-25-3.14l3,5.22C264.92,396.51,238.32,408.26,209.89,401.44ZM347,414.7c-35.14-5.14-69.11-2.44-102.3,15.5C265.15,406.14,316.68,398.83,347,414.7ZM256.22,448l-14.67,2.13-.78-2c12.13-13.16,26.6-22.81,44.83-25.33,26.18-3.63,47.85,6.53,66.77,23.77-13.33-7.92-26.66-16-43.16-18.24,4.48,9.16,3.67,17.62-2.07,27.28L354,449.1C336,462.16,283.48,469,256.22,448ZM480.11,710.61c-5.68,1.56-11.58,1.56-13.66,8.56-6-5.36-8.05-5-14-.42-2.48,1.95-6,2.67-9,3.82-2.71,1-5.71,3-8.21,2.52-4.87-.92-10.75-2-13.9-5.27-4.12-4.28-8.2-5.63-13.67-6.33-4.94-.63-9.64-3.05-14.24-4.61-.1.76-.39,2.82-.88,6.34-4.61-5.55-8.53-9.57-11.61-14.16-2.69-4-.33-8.78,5.37-12.56,5-3.31,5.69-3.18,9.67,1.71,2.71.94,4.15-9.31,7-2.49l7.65.56,29.54,5.49,15.13-2.88c.17.68.33,1.37.49,2l5.75-4.63c0,.59.09,1.18.14,1.77l17.38,1.71c.09-1.77.17-3.73.35-7.58,2.78,3.36,4.32,5.22,5.85,7.07C492,699.43,490.14,707.86,480.11,710.61ZM348.26,666.42c51.8,11.77,103.76,20.19,158.49,7.75C484.93,691.55,377.69,685.79,348.26,666.42Zm132.3-12.81c-5.4-3.37-10.91-6.61-16.11-10.29-7.94-5.62-16.31-6.18-25.48-3.69-3.73,1-8.24,1.48-11.8.36-7.67-2.45-14.8-1.28-21.87,1.25-17,6.07-33.93,12.42-50.91,18.66-.73.26-1.51.46-2.26.69l-.82-1.83c8.39-3.89,16.58-8.26,25.2-11.56,11.89-4.55,24-8.37,36.15-12.35,2.18-.71,4.77-1.35,6.87-.84,10.12,2.56,20.07.52,30.16,0,4.67-.23,10,1.6,14.14,4.08,11.61,7,22.75,14.78,34,22.35a31.33,31.33,0,0,1,4.12,4.06l-1.21,1.56C494,661.93,487.27,657.81,480.57,653.61Zm19.7,17-.69,2.06c-7.56-2.58-15.2-5-22.69-7.77-12.55-4.64-25.09-7.91-38.62-4-3.72,1.07-8.08.76-12,.19-22.06-3.2-43.77-.17-65.47,3.26-2,.32-4.09.43-6.14.63l-.39-2c9.39-1.92,18.7-4.93,28.17-5.5,16.11-1,32.31-.23,48.46-.65,5.89-.16,11.76-1.67,17.65-2.32,13.66-1.51,25.11,5.69,37.33,9.74C490.81,665.9,495.47,668.45,500.27,670.6Zm50,3.1-6.54-5.3c1,6.31,1.63,11.21,2.68,16,1.71,7.8,3.29,15.56-.85,23a2.7,2.7,0,0,1-.29.42,3.16,3.16,0,0,1-.29.33,16.68,16.68,0,0,1-3.14,2.06l-.58.37h0c-.24-1-.52-1.89-.84-2.8,0-.14-.09-.29-.14-.43q-.32-.91-.69-1.77c-.17-.45-.37-.89-.58-1.33s-.37-.81-.58-1.2l-.26-.5q-.76-1.4-1.6-2.77l-.78-1.17-.73-1-.75-1c-.26-.33-.52-.66-.79-1s-.45-.58-.69-.85l-.73-.85c-.45-.5-.91-1-1.37-1.51s-1.2-1.25-1.82-1.87c-.85-.84-1.71-1.67-2.61-2.49a31.27,31.27,0,0,1-9.12-18.14c-.91-8.54-5.5-12.72-12.13-14.47-10.1-2.67-17.81-8.7-25.84-14.65-1.9-1.41-4.55-1.8-6.87-2.67l-1,1.43c-.62-2.94-1.22-5.88-1.46-7-5-.5-8.92-.4-12.51-1.37-7-1.89-13.57-6.87-21.24-2.18a1.34,1.34,0,0,1-1.24,0c-9.65-8.66-18.82.81-28.23.76a34.3,34.3,0,0,0-3.65.36l-1.46-1.74,5-2.19c-.79-.63-1.07-1-1.31-1-5.66.27-8.39,3.41-8.65,8.93,0,.4-.26.78-1.07-.16l-13,5.56c-8,3.41-15.82,7.07-23.92,10.14-3.86,1.47-8.89.76-12,3-2.93,2-5.17,6.48-5.72,10.17-1.25,8.44-5,14.8-12.33,18.89-8.46,4.73-14.61,11.44-18,20.6-6.3-3.75-8.43-9.7-6.56-17.94.81-3.52,2.48-6.84,3.16-10.37.65-3.3.52-6.77.73-10.16l-1.73-.48L301,667.76c-2.13-13.47,2.74-23.76,9.35-33.9,7.52-11.53,20.53-10.23,31.6-13.57-.16-.55-.33-1.1-.49-1.66l-8.37.88c3-4,12.09-9.47,21.05-11.31,7.88-1.63,16-2.13,24.67-3.23-1.41-1.25-2.56-2.29-3.56-3.16,9.55-3.9,18.83-8.39,28.56-11.48,11.63-3.7,24.91,3.11,30.19,14.35,1,2.06,2,4.08,3.44,6.93,3.49-8.29,6.17-16.09,14.37-20,5.86-2.78,11.35-3,17.06.22,6.53,3.66,13.18,7.12,20.16,10.88l-4.81,3.63c15.17.75,29.39,2,40,15.65l-7.19-1.08c-.17.39-.36.76-.53,1.15,1.89.91,3.82,2.65,5.66,2.58,12.39-.53,18.16,7.46,22.8,17.07S551.45,661.68,550.28,673.7ZM574.76,453c-15.07-.84-27.36,9.37-42.16,10.3-18.26,1.17-43.39-2.93-57.51-10.89.09-.59.17-1.18.24-1.77l22.46,4v-20c-7.64,4.71-14.84,9.14-22.75,14,3.7-9.6,31.33-24.57,47.85-24.88,23-.43,39.35,10.88,52.92,27.81C575.24,452.36,575,453,574.76,453Zm-92-31.22c3.7-9.64,27.55-18.29,44.15-16.76,20.29,1.89,43.1,15.26,45.39,27.39-13.41-9.77-27.12-17.68-43.34-19.63S497.76,414.55,482.79,421.79Zm117.88-14.61c-21.25,3.62-39.5-7.51-59.58-11.5a0,0,0,0,1,0,0,5.35,5.35,0,0,1,.29-1.27,25.51,25.51,0,0,1,1.3-2.45H508.22c1.8-2.67,3.13-4.6,4.68-6.89-4.5-2.16-7.26.62-10.65,2.68a19.52,19.52,0,0,1-9.6,2.49,53,53,0,0,1-12.9-1.79c-1.34-.32-3.36-2.69-3.16-3.75A105.44,105.44,0,0,1,481,368.17c3.88-10.37,12.48-13.39,22-8,9,5,17.94,3.07,26.54-.52,12.38-5.14,23.47-2.81,35.75,5.12l-7.8.49-.3,1.47c3.79.82,7.68,1.3,11.33,2.54,4,1.4,9.31,2.42,11.51,5.45,7.48,10.26,13.85,21.31,20.59,32.1C600.91,407.2,600.57,408,600.67,407.17Z"/><path class="cls-1" d="M139,618.17c-2.58-23.07-5.56-46.45-7.67-69.91-1.15-12.91-.22-26-1.28-38.9-1.21-14.58-6.89-27.84-15.63-39.87,1.38,4.27,2.75,8.53,4.14,12.8-12.07-8.39-18.29-19.91-19.32-34.14-.61-8.14-.84-16.17-9.28-21-11.05-6.37-21.93-13-32.68-19.91-3.83-2.46-6.83-2.13-10.45.17-13.65,8.75-22.59,21.14-28.18,36.05-8.2,21.84-6.84,44-.52,65.85,13.4,46.27,39.26,84.6,76,115.56,12.74,10.73,29.37,10.78,43.75,1-1-3-2-6-3.56-10.63ZM74.56,581.9c-6,1.95-10.94.39-14.9-4.34-13.83-16.48-20.69-36-24.42-56.79-2.13-11.89-1.1-22.91,5.45-33.73,6.4-10.58,3.92-22.74,3.08-34.42-.45-6.14-1-12.31-1-18.47,0-4.63,2.71-6.74,7.45-6.7,8.88.06,15.69,4.74,20.84,10.92,7.8,9.35,14.41,19.7,21.51,29.6-6.63,4.83-13.3,4.52-19.24.13-10.52-7.75-18.29-5.52-21.53,7.42-4.16,16.63-9.67,33.24-6.4,50.91,3.31,18,13.95,31.74,25.56,44.9,5,5.69,9.34,1.87,13.6-2.13C83.66,575.57,80.57,579.92,74.56,581.9Zm32.8-13c-5.72-1.61-11.43-3.27-17.16-4.86-2.25-.62-4.7-1.93-6.76-1.51-11.27,2.32-17.68-4.67-23.31-12.25C38.58,521.4,58.37,486.9,83.5,478.47c5.2-1.74,11.3-1,17-1,1.18,0,3.18,1.1,3.39,2,.26,1.1-.69,2.94-1.7,3.73-2.82,2.23-5.91,4.14-8.93,6.1a31.18,31.18,0,0,0-13.39,17C77.59,513,72.75,518.76,69.09,525c-6,10.2-5.52,20.73,2.74,27.18,4.25,3.33,10.39,4.25,15.68,6.25l20.76,7.87Zm-2.52-28.36c-2.1-2-3-6-3.14-9.12-.32-5.16.37-10.37.63-15.56-6.14,7.59-13.34,11.47-22,11.77l21.9-30c4,5.71,9.25,12.55,8.16,21.05-1,7.42,1.38,13.29,4.45,19.39,2.72,5.4,5.27,10.89,8,16.63C116.44,549.8,110.21,545.65,104.84,540.59Z"/><path class="cls-1" d="M635.54,487.38a74.62,74.62,0,0,1-2.2-18.2c-.07-10.14,1.33-20.06,7.42-28.53,3.4-4.73,7.61-8.7,14.28-7.81-3.14-15.37-11.47-19.34-27-12.59,0,26.89.09,53.92,0,81-.12,25.09-7.56,49.74-4.54,75,.17,1.44-.43,3-.4,4.42.16,12.33.13,24.67.79,37,.13,2.31,3.13,4.44,4.8,6.64,1.64-2.06,4.12-3.86,4.8-6.2,2.51-8.72,4.28-17.64,6.58-26.41,2.85-10.89,6.64-21.58,8.78-32.61a337,337,0,0,0,5.76-41.7c1.58-24.18,2-48.43,2.94-73.21C639.73,454.18,638.13,470.8,635.54,487.38Zm.24,89.81c-5.26,6.15-4.52,12.38,1.15,18.83-10.32-1.12-14-13.52-8-21.94,9.94-13.9,15.06-29.51,11.8-46.28-2.48-12.67-2.25-24.93-.61-37.43a43,43,0,0,1,1.11-4.57l1.1,0a35.06,35.06,0,0,1,1.1,4.09c1.57,10.69,2.62,21.48,4.7,32.09C652.08,542.32,649.63,561,635.78,577.19Z"/><path class="cls-1" d="M163.33,339.59c.59,14.52-6.46,25.4-16.26,35C149.67,361.6,152.23,348.62,163.33,339.59Z"/><path d="M541.34,710.89c-2.3-9.43-7.88-16.27-15-22.87a31.18,31.18,0,0,1-9.11-18.14c-.91-8.55-5.52-12.72-12.13-14.47-10.1-2.66-17.82-8.7-25.84-14.65-1.9-1.41-4.56-1.8-6.87-2.66l-1,1.43-1.46-7c-5-.51-8.91-.41-12.5-1.37-7-1.89-13.58-6.87-21.25-2.17a1.34,1.34,0,0,1-1.23,0c-9.66-8.66-18.82.8-28.24.76a34.53,34.53,0,0,0-3.64.36l-1.46-1.74,5-2.19c-.8-.63-1.07-1-1.32-1-5.66.28-8.38,3.42-8.65,8.94,0,.4-.25.78-1.06-.16l-13,5.57c-8,3.41-15.83,7.07-23.92,10.14-3.87,1.47-8.89.76-12,3-2.92,2-5.17,6.49-5.71,10.17-1.25,8.44-5,14.79-12.33,18.89-8.47,4.72-14.62,11.44-18,20.6-6.29-3.74-8.42-9.69-6.55-17.94.8-3.51,2.47-6.84,3.15-10.36.64-3.31.52-6.77.73-10.17l-1.73-.46-5.18,4.41c-2.14-13.46,2.74-23.76,9.35-33.9,7.51-11.52,20.53-10.23,31.59-13.57l-.48-1.65-8.37.87c3-4,12.1-9.46,21.06-11.31,7.87-1.62,16-2.13,24.67-3.22l-3.56-3.16c9.54-3.9,18.83-8.38,28.56-11.48,11.62-3.71,24.92,3.12,30.18,14.36,1,2.06,2,4.07,3.45,6.93,3.48-8.29,6.16-16.1,14.36-20,5.87-2.78,11.35-3,17.06.22,6.53,3.67,13.18,7.12,20.15,10.88l-4.81,3.64c15.18.75,29.39,2,40,15.65l-7.18-1.09-.54,1.15c1.89.9,3.82,2.65,5.66,2.57,12.4-.53,18.16,7.47,22.81,17.08s6.42,19.95,5.26,32l-6.55-5.3c1,6.3,1.62,11.21,2.68,16,1.72,7.79,3.28,15.56-.86,23-.81,1.46-2.92,2.2-4.43,3.27Z"/><path d="M276.93,363.62H266.32c12.59-4.79,25.17-8.48,38.66-4.37,7.32,2.23,14.84,3.79,22.23,5.82,9.28,2.55,18,1.16,26.39-3.25,6.91-3.61,21,1.28,24.76,9.32,2.89,6.21,4.25,13.14,6.59,20.71-4.24,0-6.89-.13-9.53,0-4.45.26-9.1,0-13.29,1.24a14.31,14.31,0,0,1-14.24-2.83c-4.11-3.34-8.71-4.66-14.83-3.08l5.64,6.31c-8.75,0-16.43.39-24-.11-7.77-.51-15.49-1.91-25-3.14l3,5.23c-27.81,1-54.41,12.76-82.84,5.94,11.06-9.87,22.41-20.57,34.49-30.37,3-2.46,8.37-2.28,12.71-2.91,6.62-1,13.3-1.55,19.95-2.3Z"/><path d="M565.34,364.75l-7.81.5-.29,1.46c3.78.82,7.68,1.3,11.32,2.54,4.05,1.39,9.31,2.41,11.52,5.44,7.48,10.25,13.86,21.32,20.6,32.11.25.39-.1,1.16,0,.37-21.25,3.62-39.5-7.51-59.59-11.5a4.42,4.42,0,0,1,.29-1.26,23.26,23.26,0,0,1,1.29-2.45H508.21l4.69-6.89c-4.49-2.16-7.26.62-10.65,2.68a19.54,19.54,0,0,1-9.59,2.5,53.44,53.44,0,0,1-12.9-1.79c-1.34-.32-3.36-2.69-3.15-3.74A106,106,0,0,1,481,368.17c3.88-10.38,12.49-13.38,22-8,9,5.05,17.94,3.07,26.54-.51C542,354.5,553.07,356.83,565.34,364.75Z"/><path d="M403,687.72l7.66.56,29.53,5.49,15.13-2.88.49,2,5.75-4.63.13,1.78,17.38,1.71.35-7.58,5.85,7.07c6.76,8.14,4.88,16.57-5.15,19.32-5.68,1.55-11.59,1.55-13.66,8.57-6-5.36-8.07-5.05-14-.43-2.49,1.94-6,2.67-9,3.82-2.72,1-5.71,3-8.21,2.52-4.88-.91-10.76-2-13.9-5.27-4.13-4.28-8.21-5.63-13.69-6.33-4.93-.63-9.63-3-14.23-4.6l-.88,6.34c-4.61-5.54-8.53-9.57-11.61-14.16-2.69-4-.33-8.78,5.38-12.57,5-3.31,5.69-3.18,9.67,1.72C398.66,691.14,400.1,680.9,403,687.72Z"/><path d="M522.9,423.72C506.37,424,478.75,439,475,448.6c7.91-4.88,15.12-9.31,22.75-14v20l-22.46-4c-.07.59-.16,1.18-.24,1.77,14.12,8,39.25,12.06,57.51,10.89,14.8-.94,27.09-11.14,42.16-10.3.22,0,.48-.65,1.07-1.48C562.25,434.59,545.87,423.28,522.9,423.72Zm19.83,31.79V433.05l21.17,16.44Z"/><path d="M307.14,455.57c5.75-9.65,6.56-18.11,2.07-27.28,16.5,2.28,29.83,10.32,43.16,18.24-18.92-17.25-40.59-27.41-66.77-23.77-18.23,2.52-32.69,12.18-44.83,25.33l.78,2L256.22,448C283.48,469,336,462.16,354,449.1Zm-52-10.12,14.8-11c1.24,6,2.33,11.41,3.56,17.45Z"/><path d="M479.34,582.7a23.63,23.63,0,0,1,3.43-1.09c15.05-2.42,23.7-15.36,17.77-29.35-4.33-10.21-11.86-19-17.4-28.79-6-10.51-11.32-21.37-16.85-32.13-.37-.73,0-1.85,1.32-3.34,3.14,4.82,6.1,9.78,9.46,14.44,7.33,10.16,15,20.11,22.3,30.27,6,8.37,11.25,17.28,10.25,28.08-1.25,13.47-11.29,24.92-26.1,24.28a22.25,22.25,0,0,1-4.14-1Z"/><path d="M348.27,666.42c51.8,11.77,103.75,20.19,158.48,7.75C484.94,691.55,377.69,685.79,348.27,666.42Z"/><path d="M351.31,658.77c8.39-3.89,16.59-8.26,25.21-11.56,11.88-4.55,24.05-8.37,36.15-12.34,2.17-.71,4.77-1.36,6.87-.83,10.12,2.55,20.08.51,30.15,0,4.67-.24,10,1.6,14.14,4.07,11.61,7,22.76,14.78,34,22.36a30.32,30.32,0,0,1,4.12,4.06l-1.21,1.55c-6.74-4.15-13.49-8.27-20.2-12.46-5.4-3.37-10.9-6.62-16.1-10.29-7.95-5.62-16.31-6.19-25.49-3.69-3.73,1-8.24,1.49-11.8.35-7.66-2.44-14.8-1.27-21.87,1.25-17,6.07-33.94,12.43-50.9,18.66-.74.27-1.51.46-2.27.69Z"/><path d="M482.79,421.79c3.69-9.64,27.55-18.29,44.14-16.75,20.3,1.88,43.1,15.26,45.39,27.39-13.41-9.78-27.12-17.68-43.34-19.63C512.91,410.86,497.76,414.56,482.79,421.79Z"/><path d="M499.58,672.67c-7.57-2.58-15.2-5-22.7-7.78-12.55-4.63-25.08-7.9-38.6-4-3.73,1.08-8.08.77-12,.19-22.06-3.19-43.77-.18-65.48,3.26-2,.32-4.09.43-6.14.64l-.38-2c9.38-1.91,18.7-4.92,28.17-5.5,16.1-1,32.3-.24,48.45-.65,5.9-.15,11.76-1.67,17.66-2.32,13.65-1.51,25.1,5.7,37.32,9.75,5,1.65,9.62,4.2,14.41,6.35Z"/><path d="M347,414.7c-35.14-5.14-69.11-2.44-102.3,15.51C265.16,406.13,316.69,398.83,347,414.7Z"/><path d="M370.27,523c-2.73,7.69-5,13.75-7,19.91-5.33,16.36-1.5,30.93,13.85,39.49,4.2,2.34,8.38,4.71,12.95,7.27-10.92,3-27.34-6.6-33.75-18.13C348.79,558,357.71,532.71,370.27,523Z"/><path d="M374.78,564.84c7.25-10.21,21.44-13.17,30.38-7.12,5.2,3.52,5.19,7.54,0,10.92-5.93,3.83-10.12,3.14-15.37-1.09-2.34-1.88-6-2.3-9.11-3C379,564.2,377.21,564.69,374.78,564.84Z"/><path d="M452.08,563.88c5.93-6.76,18-8.25,25-3.07C473.26,570.56,459.55,572.24,452.08,563.88Z"/><path d="M411.78,537l4.61,21.14C410.54,551.59,410.09,544.44,411.78,537Z"/><path d="M84.57,569.19c-.91,6.38-4,10.74-10,12.7s-10.94.39-14.91-4.34c-13.83-16.47-20.68-36-24.42-56.78-2.13-11.88-1.1-22.91,5.44-33.72,6.4-10.59,3.93-22.75,3.09-34.42-.45-6.15-1-12.31-1-18.47,0-4.64,2.71-6.75,7.45-6.71,8.88.07,15.69,4.75,20.83,10.93,7.8,9.36,14.41,19.7,21.52,29.6-6.63,4.83-13.3,4.52-19.25.13C62.8,460.34,55,462.58,51.8,475.52c-4.17,16.63-9.67,33.24-6.41,50.9,3.32,18,14,31.75,25.56,44.91C76,577,80.3,573.19,84.57,569.19Z"/><path d="M107.36,568.95c-5.72-1.62-11.43-3.27-17.16-4.85-2.25-.62-4.7-1.94-6.77-1.51-11.26,2.31-17.67-4.67-23.31-12.25C38.58,521.4,58.36,486.9,83.5,478.47c5.2-1.74,11.3-.94,17-1,1.19,0,3.18,1.09,3.39,2,.25,1.09-.7,2.94-1.71,3.73-2.82,2.23-5.91,4.13-8.94,6.09a31.21,31.21,0,0,0-13.38,17C77.6,513,72.74,518.76,69.08,525c-6,10.2-5.51,20.73,2.74,27.18,4.26,3.33,10.4,4.24,15.69,6.25l20.76,7.86Z"/><path d="M102.33,515.9c-6.14,7.6-13.35,11.48-22,11.78l21.89-30c4,5.7,9.26,12.54,8.15,21-1,7.43,1.39,13.28,4.47,19.39,2.72,5.41,5.27,10.9,8,16.63-6.47-5-12.7-9.1-18.06-14.16-2.1-2-3-6-3.15-9.13C101.38,526.31,102.07,521.09,102.33,515.9Z"/><path d="M642.32,485.84a35.13,35.13,0,0,1,1.1,4.09c1.57,10.7,2.63,21.49,4.7,32.08,4,20.31,1.51,39-12.33,55.17-5.26,6.16-4.52,12.38,1.15,18.84-10.31-1.13-14-13.52-8-21.94,9.94-13.9,15.05-29.51,11.79-46.28-2.47-12.67-2.24-24.93-.59-37.43a42.88,42.88,0,0,1,1.1-4.58Z"/><path class="cls-1" d="M542.73,433.05l21.16,16.45-21.16,6Z"/><path class="cls-1" d="M273.53,451.94l-18.35-6.48,14.79-11Z"/><path d="M665.74,454.36a112.87,112.87,0,0,0-4-24.42c-4.55-15.76-16.18-20.92-31.28-14.81l-3.5,1.37C628,402,629,388.39,630.12,373.95l3.67,2.46c.42-1.79.88-3.39,1.15-5,3.33-19,6.05-38.2,10.06-57.09q11.22-53.1-7.55-103.75c-1.38-3.75-5.29-6.54-7.94-9.84a6.74,6.74,0,0,1-1.63-3.05c-2.49-21.18-12.64-38.9-24.24-56.27a502.7,502.7,0,0,1-26.09-43.8c-8.89-16.76-18.77-33.2-33.67-44.58C514.07,30.25,483.1,9.23,443.35,7.14,410.42,5.41,377.6,1.24,344.68,0c-14.42-.53-29,3.65-43.54,5.75-10.1,1.46-20.26,2.64-30.26,4.64-17.19,3.44-31.33,12.74-44.55,23.85a36.09,36.09,0,0,1-13.2,6.63c-13.8,3.83-26.89,9-38.5,18l10.14-3.56.52.84c-2,1.2-4,2.33-5.92,3.6-2.64,1.76-5.85,3.11-7.74,5.5C160.74,79.15,146,87.15,130.14,93.66a13.9,13.9,0,0,0-5.79,4.74l25.48-11.11,1,2c-4.15,2.71-8.1,5.85-12.51,8.07a61.44,61.44,0,0,0-27.23,27c-7.2,13.69-15.59,26.37-27.25,36.77C60.33,182.12,48,208.91,42.75,239.77c-4.24,24.86-3.79,49.09,3.56,73.33s7,49.21,6.22,74.18c-.16,5.09-.63,10.16-1,15.3C30,405.65,18.14,420.33,9.67,438.13c-14.73,31-11.08,62.3.61,93.18,13.79,36.41,35.55,67.33,65.91,91.92,18.59,15,27.87,35.36,32,58,6.05,33.3,7,67,4.14,100.7-1.47,17.38-3.66,34.68-5.4,52a86.32,86.32,0,0,0-.06,9q7.22,4.11,14.61,8a4,4,0,0,1-.22-.58,3.13,3.13,0,0,1-.1-.35,3,3,0,0,1-.07-.35.73.73,0,0,1,0-.17,1,1,0,0,1,0-.29c0-.17,0-.36-.06-.55a11.5,11.5,0,0,1,0-1.73c1.76-29.37,3.85-58.73,4.41-88.13.76-39.68-1.84-79.15-13.07-117.56a1.82,1.82,0,0,1,.13-.92l27.26-10q11.91,48,23.77,95.83c5.92,23.88,16.33,45.2,35.75,61.15,18.5,15.19,39.88,25.32,62.09,33.47,19.93,7.32,40.32,13.37,60.58,19.74,5.88,1.84,12.81,5.26,17.87,3.63,8.53-2.75,14.21,2.56,21.21,3.7,7.72,1.28,15.43,3,23.21,3.54a238.09,238.09,0,0,0,26.83,0c13.17-.59,26.35-2.32,39.12,2.81a4.92,4.92,0,0,0,3.63-.32c10.94-5.56,22.22-10.59,32.59-17.06,9.93-6.2,19.12-13.54,29.12-20l11.82,39.91-4.09-34.06c5.73-6.18,10.76-13,17.15-18a122.6,122.6,0,0,0,30-34c1.93-3.24,5.26-5.68,8-8.43,14.11-14.27,21.11-32.33,25.86-51.14,5.13-20.29,8.89-40.94,12.91-61.5,1.17-5.92,1.18-12.06,1.73-18.24,12.38,6.15,20.42,3.66,25.17-9.42,4.41-12.13,6.95-25,10.32-37.46A99,99,0,0,1,657,574.8c8.8-23,9.38-47.16,10.06-71.21C667.55,487.2,666.7,470.75,665.74,454.36ZM137.82,625.85c-14.38,9.77-31,9.73-43.75-1-36.71-31-62.58-69.29-76-115.56-6.33-21.86-7.68-44,.52-65.85,5.59-14.91,14.54-27.31,28.18-36.05,3.62-2.31,6.61-2.64,10.45-.17,10.75,6.87,21.63,13.54,32.68,19.91,8.44,4.86,8.67,12.88,9.28,21,1,14.22,7.25,25.75,19.32,34.14-1.38-4.27-2.75-8.53-4.14-12.8,8.75,12,14.42,25.29,15.63,39.87,1.07,12.91.13,26,1.28,38.9,2.1,23.46,5.09,46.84,7.67,69.91l-4.71-3C135.82,619.85,136.83,622.89,137.82,625.85Zm25.52-286.26c.58,14.52-6.47,25.4-16.27,35C149.68,361.6,152.23,348.63,163.34,339.58ZM614.82,594.15c-2.56,13.72-2.29,28-4.47,41.77a161.75,161.75,0,0,1-19.22,55.81c-2.15-5.4-4-10.09-5.89-14.77l-1.56-.06q-4.67,13.27-9.35,26.6l-8.95-16-2-.09-12.61,43.9-9.61-20.6-4.24-3.59c-2.84,11.48-5.65,22.88-8.76,35.46-1.95-6.66-3.57-12.23-5.19-17.82l-2.41.33c.68,8.37,1.37,16.73,2.1,25.71-2.75-2-5.06-3.78-7.54-5.27a17.91,17.91,0,0,0-4.27-1.31c.06,1.54-.22,3.2.26,4.6,1.27,3.78,2.87,7.45,4.65,12-5.12-2.59-9.57-4.84-14-7.1l-1.33,1.66c1.07,2.59,2.12,5.2,3.18,7.78l-5.76-1.87c.17,2.36.33,4.73.65,9.06l-19.16-20.39-1.86.66c1.07,6.11,2.13,12.22,3.37,19.34l-6.93-2.42c-.88,5.37-1.69,10.26-2.65,16-3-4.7-5.63-9-8.31-13.24l-1.89.58c.19,2.84.37,5.68.61,9-2-3.49-3.82-6.56-5.61-9.64l-1.67.23c-1.6,5.45-3.18,10.89-5,17-2.85-3.26.91-9.5-5.63-9.63L439,793.5c-2.16-5-3.9-9.06-6.33-14.68l-8.54,13.13v-14.7c-8,2.9-8.62,11.38-14.41,16.37-2-7.9-3.95-15.42-5.88-22.94l-2.26-.12-4.32,17-.82.16q-1.3-11.58-2.56-23.17l-2.26-.43c-2.72,9.78-5.45,19.58-8.36,30-2.09-12.54-4-24.34-6-36.12l-1.86-.5-7.82,25-1-.07q-1.23-10.61-2.49-21.24l-2.18-.22q-3.41,10-6.82,20l-1.48.07V754.62l-1.86-.13-7.87,10.19v-22.8l-2-.59-8.4,16.58c-12.28-15.81-8.54-38.37-23.41-55.42-4.14,15.85-7.69,30.17-20.49,40.19-.39-4.38-.71-7.78-1-11.2l-1.53-1C282.4,738.14,276.69,744,267,744c10.81-15.55,6.93-32,3.92-48.69-5.84,16-8.37,33.4-22.12,45.29,9.5-18.34,6.15-36.4-1-54.6-3.1,18.34-3.54,37.48-18.43,53.07,1-9.6,1.82-17.87,2.65-26.15l-1.66-.29-10.06,18.88-1.93-.37c.94-11.77.27-23.13-7.25-33.44-3.49,9.57-6.71,18.46-10,27.33-.91-.16-1.83-.32-2.75-.46-7.68-13.54-4.09-29.22-7.72-44.8-1.53,2.54-2.68,4.47-3,5-4.9-18.07-10.12-37.33-15.24-56.28l4.37,3.14,1.2-.92-23.85-44.52,6.53,3.92c-3.9-9.38-8.05-18.56-11.58-28-10.66-28.46-11.05-57.42-4-86.79,4.08-17,8.37-34.11,6.6-51.76-1-9.47-3.56-18.76-5.49-28.11-1.73-8.4.1-14.48,6.82-21.21,9.15-9.16,16.38-20.56,23-31.86,8.46-14.55,18-27.9,31.27-38.36.45-.35,1.17-.33,2.61-.71-2.41,14.24-11.82,22.38-22,30.65,2.85-1.22,5.72-2.39,8.54-3.67,17.26-7.87,27.41-21,29.83-40a79.13,79.13,0,0,1,2.91-13.7,19.94,19.94,0,0,1,21.15-14c4.38.48,8.67,1.66,13,2.52l.61,2-33.33,13.26c.19.5.39,1,.58,1.51,58.59-6,112.25-27.2,163.93-55,1.12,6.25-2.72,9.88-6.51,13.21-7.55,6.61-16.77,9.81-26.41,12a16.07,16.07,0,0,0-5.29,2.41c42.32.19,88.95-24.88,96.54-69.11,19.55,0,39-.35,58.47.14,9.54.24,17.28,5.43,24,12.09A93.28,93.28,0,0,0,576,221.69c1.51.45,3.1.61,5.35,1-.69-2.84-1.17-4.78-1.66-6.73,10.78,14.54,21.25,28.52,20.84,48.47-.45,21,2,42,3.82,63,.78,9,2.16,18.27,5.14,26.74,2.44,6.93,1.5,13.34,1.5,20.14,0,23.23-.23,46.51,1.14,69.68,1.22,20.78,5.58,41.38,6.54,62.16C620.08,535.53,620.28,564.94,614.82,594.15Zm39.71-76.8a337,337,0,0,1-5.76,41.7c-2.13,11-5.92,21.71-8.78,32.61-2.31,8.78-4.08,17.69-6.58,26.41-.68,2.33-3.16,4.14-4.8,6.2-1.67-2.2-4.67-4.34-4.8-6.64-.66-12.29-.63-24.63-.79-37,0-1.47.58-3,.4-4.42-3-25.3,4.42-50,4.54-75,.12-27,0-54.06,0-81,15.58-6.74,23.9-2.78,27,12.59-6.67-.89-10.88,3.08-14.28,7.81-6.1,8.47-7.49,18.39-7.42,28.53a74.62,74.62,0,0,0,2.2,18.2c2.59-16.57,4.19-33.2,21.93-43.24C656.53,468.92,656.11,493.17,654.53,517.35Z"/></g></g></svg>