<svg width="746" height="158" viewBox="0 0 746 158" fill="none" xmlns="http://www.w3.org/2000/svg">
<g filter="url(#filter0_d_1_16)">
<path d="M24.12 54.904L16.128 63.112V76H6.768V25.6H16.128V51.448L41.04 25.6H51.552L30.384 48.136L52.848 76H41.904L24.12 54.904ZM92.1971 76L81.9011 61.24C81.4691 61.288 80.8211 61.312 79.9571 61.312H68.5811V76H59.2211V25.6H79.9571C84.3251 25.6 88.1171 26.32 91.3331 27.76C94.5971 29.2 97.0931 31.264 98.8211 33.952C100.549 36.64 101.413 39.832 101.413 43.528C101.413 47.32 100.477 50.584 98.6051 53.32C96.7811 56.056 94.1411 58.096 90.6851 59.44L102.277 76H92.1971ZM91.9811 43.528C91.9811 40.312 90.9251 37.84 88.8131 36.112C86.7011 34.384 83.6051 33.52 79.5251 33.52H68.5811V53.608H79.5251C83.6051 53.608 86.7011 52.744 88.8131 51.016C90.9251 49.24 91.9811 46.744 91.9811 43.528ZM144.573 64.336H119.373L114.405 76H104.757L127.437 25.6H136.653L159.405 76H149.613L144.573 64.336ZM141.477 56.992L131.973 34.96L122.541 56.992H141.477ZM173.508 33.52H156.804V25.6H199.572V33.52H182.868V76H173.508V33.52ZM206.596 25.6H215.956V76H206.596V25.6ZM274.372 25.6V76H266.668L238.876 41.872V76H229.588V25.6H237.292L265.084 59.728V25.6H274.372ZM295.725 76.72C292.509 76.72 289.533 76.096 286.797 74.848C284.109 73.552 281.901 71.752 280.173 69.448L285.501 63.04C288.285 66.88 291.621 68.8 295.509 68.8C300.741 68.8 303.357 65.704 303.357 59.512V33.448H285.429V25.6H312.717V59.008C312.717 64.912 311.277 69.352 308.397 72.328C305.517 75.256 301.293 76.72 295.725 76.72ZM357.479 64.336H332.279L327.311 76H317.663L340.343 25.6H349.559L372.311 76H362.519L357.479 64.336ZM354.383 56.992L344.879 34.96L335.447 56.992H354.383ZM397.442 58.216V76H388.082V58.36L368.282 25.6H378.29L393.05 50.152L407.954 25.6H417.17L397.442 58.216Z" fill="#FEF4F4"/>
</g>
<g style="mix-blend-mode:darken" filter="url(#filter1_d_1_16)">
<path d="M529.56 105.752H503.352V113.6C505.464 111.728 508.008 110.792 510.984 110.792C515.256 110.792 518.688 112.136 521.28 114.824C523.92 117.464 525.24 120.848 525.24 124.976C525.24 129.44 523.752 133.016 520.776 135.704C517.8 138.344 513.984 139.664 509.328 139.664C508.608 139.664 508.056 139.64 507.672 139.592V131.456C507.96 131.504 508.344 131.528 508.824 131.528C510.792 131.528 512.304 130.928 513.36 129.728C514.464 128.528 515.016 126.992 515.016 125.12C515.016 123.392 514.512 121.928 513.504 120.728C512.496 119.48 511.032 118.856 509.112 118.856C507.432 118.856 506.04 119.48 504.936 120.728C503.88 121.928 503.352 123.536 503.352 125.552V146H493.128V137.504L483.696 149.24H471.672L480.168 139.52C477.384 138.56 475.2 136.904 473.616 134.552C472.032 132.152 471.24 129.368 471.24 126.2C471.24 121.736 472.728 118.184 475.704 115.544C478.68 112.856 482.496 111.512 487.152 111.512C487.824 111.512 488.376 111.536 488.808 111.584V119.72C488.52 119.672 488.136 119.648 487.656 119.648C485.688 119.648 484.152 120.248 483.048 121.448C481.992 122.648 481.464 124.184 481.464 126.056C481.464 127.784 481.968 129.272 482.976 130.52C483.984 131.72 485.448 132.32 487.368 132.32C489.048 132.32 490.416 131.72 491.472 130.52C492.576 129.272 493.128 127.64 493.128 125.624V105.752H465.84V97.688H529.56V105.752ZM559.672 78.968C572.2 78.968 585.136 80.72 598.48 84.224V93.08C585.136 89.384 572.296 87.536 559.96 87.536C555.544 87.536 553.336 89.48 553.336 93.368V97.688H560.536V105.752H553.336V146H543.184V105.752H535.984V97.688H543.184V93.296C543.184 88.976 544.6 85.52 547.432 82.928C550.264 80.288 554.344 78.968 559.672 78.968ZM615.13 97.688V105.752H607.93V146H597.706V120.08H592.666C589.402 120.08 586.906 120.824 585.178 122.312C583.498 123.752 582.658 125.864 582.658 128.648C582.658 134.504 585.178 137.432 590.218 137.432C590.746 137.432 591.154 137.408 591.442 137.36V145.784C590.29 145.88 589.33 145.928 588.562 145.928C583.474 145.928 579.514 144.344 576.682 141.176C573.85 137.96 572.434 133.76 572.434 128.576C572.434 123.488 574.114 119.432 577.474 116.408C580.834 113.384 585.802 111.872 592.378 111.872H597.706V105.752H567.034V97.688H615.13ZM615.966 79.76C614.814 78.608 614.238 77.216 614.238 75.584C614.238 73.952 614.814 72.56 615.966 71.408C617.118 70.256 618.51 69.68 620.142 69.68C621.774 69.68 623.166 70.256 624.318 71.408C625.47 72.56 626.046 73.952 626.046 75.584C626.046 77.216 625.47 78.608 624.318 79.76C623.166 80.912 621.774 81.488 620.142 81.488C618.51 81.488 617.118 80.912 615.966 79.76ZM632.438 97.688H684.206V105.752H676.934V146H666.71V120.944H656.558C659.342 122.768 660.734 125.6 660.734 129.44C660.734 133.376 659.39 136.472 656.702 138.728C654.014 140.936 650.486 142.04 646.118 142.04C642.614 142.04 639.494 141.536 636.758 140.528V131.6C639.014 132.8 641.438 133.4 644.03 133.4C648.782 133.4 651.158 131.432 651.158 127.496C651.158 125.432 650.294 123.824 648.566 122.672C646.838 121.52 644.27 120.944 640.862 120.944V112.664H666.71V105.752H632.438V97.688ZM712.661 138.368C707.909 138.368 703.805 136.64 700.349 133.184C696.941 129.728 694.877 124.976 694.157 118.928C701.645 117.872 705.389 115.376 705.389 111.44C705.389 109.04 704.693 107.144 703.301 105.752H690.629V97.688H740.597V105.752H733.397V146H723.245V133.76C722.429 135.152 721.061 136.28 719.141 137.144C717.221 137.96 715.061 138.368 712.661 138.368ZM714.389 129.44C717.125 129.44 719.285 128.648 720.869 127.064C722.453 125.48 723.245 123.104 723.245 119.936V105.752H713.885C714.893 107.288 715.397 109.352 715.397 111.944C715.397 115.064 714.509 117.632 712.733 119.648C711.005 121.616 708.749 123.056 705.965 123.968C707.069 127.616 709.877 129.44 714.389 129.44Z" fill="#FF9900"/>
</g>
<g filter="url(#filter2_d_1_16)">
<path d="M452.175 17.33H460.95L416.4 144.5H407.625L452.175 17.33Z" fill="#FF9900"/>
</g>
<defs>
<filter id="filter0_d_1_16" x="2.76801" y="25.6" width="418.402" height="59.12" filterUnits="userSpaceOnUse" color-interpolation-filters="sRGB">
<feFlood flood-opacity="0" result="BackgroundImageFix"/>
<feColorMatrix in="SourceAlpha" type="matrix" values="0 0 0 0 0 0 0 0 0 0 0 0 0 0 0 0 0 0 127 0" result="hardAlpha"/>
<feOffset dy="4"/>
<feGaussianBlur stdDeviation="2"/>
<feComposite in2="hardAlpha" operator="out"/>
<feColorMatrix type="matrix" values="0 0 0 0 0 0 0 0 0 0 0 0 0 0 0 0 0 0 0.25 0"/>
<feBlend mode="normal" in2="BackgroundImageFix" result="effect1_dropShadow_1_16"/>
<feBlend mode="normal" in="SourceGraphic" in2="effect1_dropShadow_1_16" result="shape"/>
</filter>
<filter id="filter1_d_1_16" x="461.84" y="69.68" width="282.757" height="87.56" filterUnits="userSpaceOnUse" color-interpolation-filters="sRGB">
<feFlood flood-opacity="0" result="BackgroundImageFix"/>
<feColorMatrix in="SourceAlpha" type="matrix" values="0 0 0 0 0 0 0 0 0 0 0 0 0 0 0 0 0 0 127 0" result="hardAlpha"/>
<feOffset dy="4"/>
<feGaussianBlur stdDeviation="2"/>
<feComposite in2="hardAlpha" operator="out"/>
<feColorMatrix type="matrix" values="0 0 0 0 0 0 0 0 0 0 0 0 0 0 0 0 0 0 0.25 0"/>
<feBlend mode="normal" in2="BackgroundImageFix" result="effect1_dropShadow_1_16"/>
<feBlend mode="normal" in="SourceGraphic" in2="effect1_dropShadow_1_16" result="shape"/>
</filter>
<filter id="filter2_d_1_16" x="403.625" y="17.33" width="61.325" height="135.17" filterUnits="userSpaceOnUse" color-interpolation-filters="sRGB">
<feFlood flood-opacity="0" result="BackgroundImageFix"/>
<feColorMatrix in="SourceAlpha" type="matrix" values="0 0 0 0 0 0 0 0 0 0 0 0 0 0 0 0 0 0 127 0" result="hardAlpha"/>
<feOffset dy="4"/>
<feGaussianBlur stdDeviation="2"/>
<feComposite in2="hardAlpha" operator="out"/>
<feColorMatrix type="matrix" values="0 0 0 0 0 0 0 0 0 0 0 0 0 0 0 0 0 0 0.25 0"/>
<feBlend mode="normal" in2="BackgroundImageFix" result="effect1_dropShadow_1_16"/>
<feBlend mode="normal" in="SourceGraphic" in2="effect1_dropShadow_1_16" result="shape"/>
</filter>
</defs>
</svg>
